<?xml version="1.0" encoding="UTF-8"?>
<svg width="21px" height="25px" viewBox="0 0 21 25" version="1.1" xmlns="http://www.w3.org/2000/svg" xmlns:xlink="http://www.w3.org/1999/xlink">
    <!-- Generator: Sketch 42 (36781) - http://www.bohemiancoding.com/sketch -->
    <title>shopping-bag</title>
    <desc>Created with Sketch.</desc>
    <defs></defs>
    <g id="Page-1" stroke="none" stroke-width="1" fill="none" fill-rule="evenodd">
        <g id="Shaded" transform="translate(-102.000000, -350.000000)">
            <g id="shopping-bag" transform="translate(102.000000, 350.000000)">
                <path d="M20.775,22.4443 C20.747,22.1913 20.533,22.0003 20.278,22.0003 L0.722,22.0003 C0.467,22.0003 0.254,22.1913 0.225,22.4443 L0.003,24.4443 C-0.013,24.5863 0.033,24.7273 0.128,24.8333 C0.222,24.9393 0.358,25.0003 0.5,25.0003 L20.5,25.0003 C20.642,25.0003 20.778,24.9393 20.873,24.8333 C20.967,24.7273 21.013,24.5863 20.997,24.4443 L20.775,22.4443 Z" id="Fill-1" fill="#938CAA" opacity="0.239999995"></path>
                <polygon id="Stroke-8" stroke="#938CAA" stroke-linecap="round" stroke-linejoin="round" points="18.5 6.5 2.5 6.5 0.5 24.5 20.5 24.5"></polygon>
                <path d="M6.5,9.5 L6.5,4.5 C6.5,2.3 8.3,0.5 10.5,0.5 C12.7,0.5 14.5,2.3 14.5,4.5 L14.5,9.5" id="Stroke-9" stroke="#938CAA" stroke-linecap="round" stroke-linejoin="round"></path>
                <path d="M7.5,10.5 C7.5,11.053 7.052,11.5 6.5,11.5 C5.948,11.5 5.5,11.053 5.5,10.5 C5.5,9.947 5.948,9.5 6.5,9.5 C7.052,9.5 7.5,9.947 7.5,10.5 Z" id="Stroke-10" stroke="#938CAA" stroke-linecap="round" stroke-linejoin="round"></path>
                <path d="M15.5,10.5 C15.5,11.053 15.052,11.5 14.5,11.5 C13.948,11.5 13.5,11.053 13.5,10.5 C13.5,9.947 13.948,9.5 14.5,9.5 C15.052,9.5 15.5,9.947 15.5,10.5 Z" id="Stroke-11" stroke="#938CAA" stroke-linecap="round" stroke-linejoin="round"></path>
                <path d="M20.2798,22.5 L0.7198,22.5" id="Stroke-12" stroke="#938CAA" stroke-linecap="round" stroke-linejoin="round"></path>
            </g>
        </g>
    </g>
</svg>